<?xml version="1.0" standalone="no"?>
<!DOCTYPE svg PUBLIC "-//W3C//DTD SVG 20010904//EN"
 "http://www.w3.org/TR/2001/REC-SVG-20010904/DTD/svg10.dtd">
<svg version="1.0" xmlns="http://www.w3.org/2000/svg"
 width="64.000000pt" height="64.000000pt" viewBox="0 0 64.000000 64.000000"
 preserveAspectRatio="xMidYMid meet">

<g transform="translate(0.000000,64.000000) scale(0.100000,-0.100000)"
fill="#000000" stroke="none">
<path d="M281 509 c-29 -34 -43 -47 -83 -80 -24 -20 -44 -49 -55 -79 -10 -29
-25 -51 -35 -53 -11 -3 -18 -15 -18 -31 0 -24 -3 -26 -45 -26 -44 0 -45 0 -45
-34 0 -29 4 -34 30 -39 21 -5 31 -14 36 -32 l6 -25 248 0 248 0 6 25 c5 18 15
27 36 32 26 5 30 10 30 39 0 34 -1 34 -45 34 -42 0 -45 2 -45 26 0 16 -7 28
-18 31 -10 2 -25 24 -35 53 -11 30 -31 59 -55 79 -40 33 -54 46 -83 80 -11 11
-28 21 -39 21 -11 0 -28 -10 -39 -21z m69 -14 c11 -13 7 -15 -30 -15 -37 0
-41 2 -30 15 7 8 20 15 30 15 10 0 23 -7 30 -15z m27 -46 c52 -19 113 -94 113
-139 0 -6 -60 -10 -170 -10 -99 0 -170 4 -170 9 0 23 23 68 48 95 48 51 117
69 179 45z m153 -189 c0 -19 -7 -20 -210 -20 -203 0 -210 1 -210 20 0 19 7 20
210 20 203 0 210 -1 210 -20z m90 -55 c0 -13 -40 -15 -300 -15 -260 0 -300 2
-300 15 0 13 40 15 300 15 260 0 300 -2 300 -15z m-62 -55 c-12 -19 -24 -20
-238 -20 -214 0 -226 1 -238 20 -12 20 -10 20 238 20 248 0 250 0 238 -20z"/>
<path d="M270 433 c-29 -11 -70 -45 -65 -53 3 -5 22 2 42 15 20 14 46 25 59
25 13 0 24 5 24 10 0 11 -35 12 -60 3z"/>
</g>
</svg>
