<?xml version="1.0" standalone="no"?>
<!DOCTYPE svg PUBLIC "-//W3C//DTD SVG 20010904//EN"
 "http://www.w3.org/TR/2001/REC-SVG-20010904/DTD/svg10.dtd">
<svg version="1.0" xmlns="http://www.w3.org/2000/svg"
 width="481.000000pt" height="519.000000pt" viewBox="0 0 481.000000 519.000000"
 preserveAspectRatio="xMidYMid meet">

<g transform="translate(0.000000,519.000000) scale(0.100000,-0.100000)"
fill="#000000" stroke="none">
<path d="M2325 3635 c-16 -9 -39 -26 -50 -39 -11 -12 -57 -38 -102 -56 -143
-56 -256 -181 -312 -344 -23 -68 -25 -84 -30 -431 l-6 -359 -48 -3 c-82 -5
-129 -56 -135 -144 -4 -54 -2 -59 33 -98 22 -24 52 -45 73 -51 50 -14 1264
-14 1314 0 21 6 51 27 72 50 30 34 36 47 36 86 0 92 -52 151 -137 157 l-48 3
-3 241 -2 241 -47 -14 c-25 -8 -79 -14 -120 -14 -207 0 -365 134 -403 343 -21
109 23 253 100 332 37 38 39 42 25 62 -34 49 -147 69 -210 38z"/>
<path d="M2683 3599 c-67 -26 -156 -107 -191 -173 -25 -46 -27 -61 -27 -161 0
-95 3 -117 23 -157 32 -64 105 -134 177 -169 53 -25 71 -29 151 -29 81 0 97 3
151 30 73 37 135 101 171 178 23 49 27 70 27 148 0 83 -3 95 -34 158 -38 74
-88 123 -166 164 -70 36 -206 42 -282 11z"/>
<path d="M2150 2047 c0 -7 21 -30 46 -51 122 -102 296 -102 418 0 25 21 46 44
46 51 0 10 -54 13 -255 13 -201 0 -255 -3 -255 -13z"/>
</g>
</svg>
